<svg width="766" height="444" viewBox="0 0 766 444" fill="none" xmlns="http://www.w3.org/2000/svg">
<g filter="url(#filter0_d_5_9)">
<rect x="15" y="10" width="800" height="414" fill="#101010"/>
</g>
<path d="M347.623 257.175L295.714 215.352C287.321 208.59 273.785 208.59 265.393 215.352C261.167 218.756 259 223.271 259 227.84C259 232.41 261.167 236.924 265.393 240.328L333.903 295.528C342.83 302.721 357.438 302.202 365.549 294.36L502.571 161.881C506.411 158.168 508.062 153.5 507.549 148.949C507.036 144.404 504.376 140.08 499.802 137.008C490.712 130.906 477.227 131.868 469.602 139.24L347.623 257.175Z" fill="#CFFF47" stroke="#CFFF47" stroke-width="2"/>
<defs>
<filter id="filter0_d_5_9" x="0" y="0" width="766" height="444" filterUnits="userSpaceOnUse" color-interpolation-filters="sRGB">
<feFlood flood-opacity="0" result="BackgroundImageFix"/>
<feColorMatrix in="SourceAlpha" type="matrix" values="0 0 0 0 0 0 0 0 0 0 0 0 0 0 0 0 0 0 127 0" result="hardAlpha"/>
<feOffset dy="5"/>
<feGaussianBlur stdDeviation="7.5"/>
<feColorMatrix type="matrix" values="0 0 0 0 0 0 0 0 0 0 0 0 0 0 0 0 0 0 0.35 0"/>
<feBlend mode="normal" in2="BackgroundImageFix" result="effect1_dropShadow_5_9"/>
<feBlend mode="normal" in="SourceGraphic" in2="effect1_dropShadow_5_9" result="shape"/>
</filter>
</defs>
</svg>
